<mxfile host="app.diagrams.net" modified="2021-05-11T06:13:28.658Z" agent="5.0 (Windows NT 10.0; Win64; x64) AppleWebKit/537.36 (KHTML, like Gecko) Chrome/90.0.4430.93 Safari/537.36" etag="XpAw2tIP54EhwzYve_Vg" version="14.6.11" type="github">
  <diagram id="RXhZVC6NCx-t4AXNdHlj" name="Page-1">
    <mxGraphModel dx="1727" dy="839" grid="1" gridSize="10" guides="1" tooltips="1" connect="1" arrows="1" fold="1" page="1" pageScale="1" pageWidth="827" pageHeight="1169" math="0" shadow="0">
      <root>
        <mxCell id="0" />
        <mxCell id="1" parent="0" />
        <mxCell id="OF30o3t_w9H05FNnD6Ef-8" style="edgeStyle=orthogonalEdgeStyle;rounded=0;orthogonalLoop=1;jettySize=auto;html=1;entryX=0.5;entryY=0;entryDx=0;entryDy=0;" edge="1" parent="1" source="OF30o3t_w9H05FNnD6Ef-1" target="OF30o3t_w9H05FNnD6Ef-9">
          <mxGeometry relative="1" as="geometry">
            <mxPoint x="230" y="250" as="targetPoint" />
          </mxGeometry>
        </mxCell>
        <mxCell id="OF30o3t_w9H05FNnD6Ef-1" value="场地与周边环境调研" style="rounded=0;whiteSpace=wrap;html=1;fillColor=none;" vertex="1" parent="1">
          <mxGeometry x="170" y="100" width="140" height="30" as="geometry" />
        </mxCell>
        <mxCell id="OF30o3t_w9H05FNnD6Ef-6" value="" style="strokeWidth=1;html=1;shape=mxgraph.flowchart.annotation_2;align=left;labelPosition=right;pointerEvents=1;rotation=-180;" vertex="1" parent="1">
          <mxGeometry x="470" y="102.5" width="50" height="27.5" as="geometry" />
        </mxCell>
        <mxCell id="OF30o3t_w9H05FNnD6Ef-90" style="edgeStyle=orthogonalEdgeStyle;rounded=0;orthogonalLoop=1;jettySize=auto;html=1;entryX=0.5;entryY=0;entryDx=0;entryDy=0;endArrow=none;endFill=0;" edge="1" parent="1" source="OF30o3t_w9H05FNnD6Ef-7" target="OF30o3t_w9H05FNnD6Ef-13">
          <mxGeometry relative="1" as="geometry" />
        </mxCell>
        <mxCell id="OF30o3t_w9H05FNnD6Ef-7" value="总结空间特点，提出核心概念" style="whiteSpace=wrap;html=1;rounded=0;strokeColor=#000000;fillColor=none;" vertex="1" parent="1">
          <mxGeometry x="520" y="100" width="230" height="30" as="geometry" />
        </mxCell>
        <mxCell id="OF30o3t_w9H05FNnD6Ef-14" style="edgeStyle=orthogonalEdgeStyle;rounded=0;orthogonalLoop=1;jettySize=auto;html=1;entryX=0.5;entryY=0;entryDx=0;entryDy=0;" edge="1" parent="1" source="OF30o3t_w9H05FNnD6Ef-9" target="OF30o3t_w9H05FNnD6Ef-15">
          <mxGeometry relative="1" as="geometry">
            <mxPoint x="230" y="390" as="targetPoint" />
          </mxGeometry>
        </mxCell>
        <mxCell id="OF30o3t_w9H05FNnD6Ef-107" style="edgeStyle=orthogonalEdgeStyle;rounded=0;orthogonalLoop=1;jettySize=auto;html=1;entryX=0;entryY=0.5;entryDx=0;entryDy=0;endArrow=none;endFill=0;" edge="1" parent="1" source="OF30o3t_w9H05FNnD6Ef-9" target="OF30o3t_w9H05FNnD6Ef-11">
          <mxGeometry relative="1" as="geometry" />
        </mxCell>
        <mxCell id="OF30o3t_w9H05FNnD6Ef-9" value="核心理念确定" style="rounded=0;whiteSpace=wrap;html=1;fillColor=none;" vertex="1" parent="1">
          <mxGeometry x="170" y="250" width="140" height="30" as="geometry" />
        </mxCell>
        <mxCell id="OF30o3t_w9H05FNnD6Ef-108" style="edgeStyle=orthogonalEdgeStyle;rounded=0;orthogonalLoop=1;jettySize=auto;html=1;entryX=0;entryY=0.5;entryDx=0;entryDy=0;endArrow=none;endFill=0;" edge="1" parent="1" source="OF30o3t_w9H05FNnD6Ef-11" target="OF30o3t_w9H05FNnD6Ef-13">
          <mxGeometry relative="1" as="geometry" />
        </mxCell>
        <mxCell id="OF30o3t_w9H05FNnD6Ef-11" value="共享、交往" style="rounded=0;whiteSpace=wrap;html=1;fillColor=none;" vertex="1" parent="1">
          <mxGeometry x="360" y="255" width="110" height="20" as="geometry" />
        </mxCell>
        <mxCell id="OF30o3t_w9H05FNnD6Ef-91" style="edgeStyle=orthogonalEdgeStyle;rounded=0;orthogonalLoop=1;jettySize=auto;html=1;entryX=0.5;entryY=0;entryDx=0;entryDy=0;endArrow=none;endFill=0;" edge="1" parent="1" source="OF30o3t_w9H05FNnD6Ef-13" target="OF30o3t_w9H05FNnD6Ef-54">
          <mxGeometry relative="1" as="geometry" />
        </mxCell>
        <mxCell id="OF30o3t_w9H05FNnD6Ef-13" value="设计意向" style="whiteSpace=wrap;html=1;rounded=0;strokeColor=#000000;fillColor=none;" vertex="1" parent="1">
          <mxGeometry x="595" y="245" width="80" height="40" as="geometry" />
        </mxCell>
        <mxCell id="OF30o3t_w9H05FNnD6Ef-61" style="edgeStyle=orthogonalEdgeStyle;rounded=0;orthogonalLoop=1;jettySize=auto;html=1;entryX=0.5;entryY=0;entryDx=0;entryDy=0;endArrow=classic;endFill=1;" edge="1" parent="1" source="OF30o3t_w9H05FNnD6Ef-15" target="OF30o3t_w9H05FNnD6Ef-60">
          <mxGeometry relative="1" as="geometry" />
        </mxCell>
        <mxCell id="OF30o3t_w9H05FNnD6Ef-109" style="edgeStyle=orthogonalEdgeStyle;rounded=0;orthogonalLoop=1;jettySize=auto;html=1;exitX=1;exitY=0.5;exitDx=0;exitDy=0;entryX=0;entryY=0.5;entryDx=0;entryDy=0;endArrow=none;endFill=0;" edge="1" parent="1" source="OF30o3t_w9H05FNnD6Ef-15" target="OF30o3t_w9H05FNnD6Ef-103">
          <mxGeometry relative="1" as="geometry" />
        </mxCell>
        <mxCell id="OF30o3t_w9H05FNnD6Ef-110" style="edgeStyle=orthogonalEdgeStyle;rounded=0;orthogonalLoop=1;jettySize=auto;html=1;entryX=0;entryY=0.5;entryDx=0;entryDy=0;endArrow=none;endFill=0;" edge="1" parent="1" source="OF30o3t_w9H05FNnD6Ef-15" target="OF30o3t_w9H05FNnD6Ef-53">
          <mxGeometry relative="1" as="geometry" />
        </mxCell>
        <mxCell id="OF30o3t_w9H05FNnD6Ef-111" style="edgeStyle=orthogonalEdgeStyle;rounded=0;orthogonalLoop=1;jettySize=auto;html=1;exitX=1;exitY=0.5;exitDx=0;exitDy=0;entryX=0;entryY=0.5;entryDx=0;entryDy=0;endArrow=none;endFill=0;" edge="1" parent="1" source="OF30o3t_w9H05FNnD6Ef-15" target="OF30o3t_w9H05FNnD6Ef-52">
          <mxGeometry relative="1" as="geometry" />
        </mxCell>
        <mxCell id="OF30o3t_w9H05FNnD6Ef-15" value="资料查找与案例手法总结" style="rounded=0;whiteSpace=wrap;html=1;fillColor=none;" vertex="1" parent="1">
          <mxGeometry x="170" y="390" width="140" height="30" as="geometry" />
        </mxCell>
        <mxCell id="OF30o3t_w9H05FNnD6Ef-2" value="." style="strokeWidth=1;html=1;shape=mxgraph.flowchart.annotation_2;align=left;labelPosition=right;pointerEvents=1;fillColor=none;" vertex="1" parent="1">
          <mxGeometry x="310" y="102.5" width="50" height="27.5" as="geometry" />
        </mxCell>
        <mxCell id="OF30o3t_w9H05FNnD6Ef-113" style="edgeStyle=orthogonalEdgeStyle;rounded=0;orthogonalLoop=1;jettySize=auto;html=1;endArrow=none;endFill=0;entryX=0;entryY=0.5;entryDx=0;entryDy=0;" edge="1" parent="1" source="OF30o3t_w9H05FNnD6Ef-52" target="OF30o3t_w9H05FNnD6Ef-54">
          <mxGeometry relative="1" as="geometry">
            <mxPoint x="520" y="405" as="targetPoint" />
          </mxGeometry>
        </mxCell>
        <mxCell id="OF30o3t_w9H05FNnD6Ef-52" value="公共建筑" style="rounded=0;whiteSpace=wrap;html=1;shadow=0;sketch=0;strokeColor=#000000;strokeWidth=1;fillColor=none;" vertex="1" parent="1">
          <mxGeometry x="360" y="395" width="110" height="20" as="geometry" />
        </mxCell>
        <mxCell id="OF30o3t_w9H05FNnD6Ef-114" style="edgeStyle=orthogonalEdgeStyle;rounded=0;orthogonalLoop=1;jettySize=auto;html=1;endArrow=none;endFill=0;entryX=0;entryY=0.5;entryDx=0;entryDy=0;" edge="1" parent="1" source="OF30o3t_w9H05FNnD6Ef-53" target="OF30o3t_w9H05FNnD6Ef-54">
          <mxGeometry relative="1" as="geometry">
            <mxPoint x="520" y="410" as="targetPoint" />
            <Array as="points">
              <mxPoint x="500" y="440" />
              <mxPoint x="500" y="405" />
            </Array>
          </mxGeometry>
        </mxCell>
        <mxCell id="OF30o3t_w9H05FNnD6Ef-53" value="共享建筑" style="rounded=0;whiteSpace=wrap;html=1;shadow=0;sketch=0;strokeColor=#000000;strokeWidth=1;fillColor=none;" vertex="1" parent="1">
          <mxGeometry x="360" y="430" width="110" height="20" as="geometry" />
        </mxCell>
        <mxCell id="OF30o3t_w9H05FNnD6Ef-92" style="edgeStyle=orthogonalEdgeStyle;rounded=0;orthogonalLoop=1;jettySize=auto;html=1;entryX=0.5;entryY=0;entryDx=0;entryDy=0;endArrow=none;endFill=0;" edge="1" parent="1" source="OF30o3t_w9H05FNnD6Ef-54" target="OF30o3t_w9H05FNnD6Ef-89">
          <mxGeometry relative="1" as="geometry" />
        </mxCell>
        <mxCell id="OF30o3t_w9H05FNnD6Ef-54" value="设计手法" style="rounded=0;whiteSpace=wrap;html=1;shadow=0;sketch=0;strokeColor=#000000;strokeWidth=1;fillColor=none;" vertex="1" parent="1">
          <mxGeometry x="595" y="385" width="80" height="40" as="geometry" />
        </mxCell>
        <mxCell id="OF30o3t_w9H05FNnD6Ef-73" style="edgeStyle=orthogonalEdgeStyle;rounded=0;orthogonalLoop=1;jettySize=auto;html=1;entryX=0.5;entryY=0;entryDx=0;entryDy=0;endArrow=classic;endFill=1;" edge="1" parent="1" source="OF30o3t_w9H05FNnD6Ef-60" target="OF30o3t_w9H05FNnD6Ef-71">
          <mxGeometry relative="1" as="geometry" />
        </mxCell>
        <mxCell id="OF30o3t_w9H05FNnD6Ef-60" value="总体规划" style="rounded=0;whiteSpace=wrap;html=1;shadow=0;sketch=0;strokeColor=#000000;strokeWidth=1;fillColor=none;" vertex="1" parent="1">
          <mxGeometry x="170" y="530" width="140" height="30" as="geometry" />
        </mxCell>
        <mxCell id="OF30o3t_w9H05FNnD6Ef-79" style="edgeStyle=orthogonalEdgeStyle;rounded=0;orthogonalLoop=1;jettySize=auto;html=1;entryX=0.5;entryY=0;entryDx=0;entryDy=0;endArrow=classic;endFill=1;" edge="1" parent="1" source="OF30o3t_w9H05FNnD6Ef-71" target="OF30o3t_w9H05FNnD6Ef-78">
          <mxGeometry relative="1" as="geometry" />
        </mxCell>
        <mxCell id="OF30o3t_w9H05FNnD6Ef-71" value="空间组织" style="rounded=0;whiteSpace=wrap;html=1;shadow=0;sketch=0;strokeColor=#000000;strokeWidth=1;fillColor=none;" vertex="1" parent="1">
          <mxGeometry x="170" y="670" width="140" height="30" as="geometry" />
        </mxCell>
        <mxCell id="OF30o3t_w9H05FNnD6Ef-78" value="方案设计" style="rounded=0;whiteSpace=wrap;html=1;shadow=0;sketch=0;strokeColor=#000000;strokeWidth=1;fillColor=none;" vertex="1" parent="1">
          <mxGeometry x="170" y="810" width="140" height="30" as="geometry" />
        </mxCell>
        <mxCell id="OF30o3t_w9H05FNnD6Ef-89" value="设计成果" style="rounded=0;whiteSpace=wrap;html=1;shadow=0;sketch=0;strokeColor=#000000;strokeWidth=1;fillColor=none;" vertex="1" parent="1">
          <mxGeometry x="595" y="800" width="80" height="40" as="geometry" />
        </mxCell>
        <mxCell id="OF30o3t_w9H05FNnD6Ef-112" style="edgeStyle=orthogonalEdgeStyle;rounded=0;orthogonalLoop=1;jettySize=auto;html=1;entryX=0;entryY=0.5;entryDx=0;entryDy=0;endArrow=none;endFill=0;" edge="1" parent="1" source="OF30o3t_w9H05FNnD6Ef-103" target="OF30o3t_w9H05FNnD6Ef-54">
          <mxGeometry relative="1" as="geometry">
            <Array as="points">
              <mxPoint x="500" y="370" />
              <mxPoint x="500" y="405" />
            </Array>
          </mxGeometry>
        </mxCell>
        <mxCell id="OF30o3t_w9H05FNnD6Ef-103" value="大学生活动中心" style="rounded=0;whiteSpace=wrap;html=1;shadow=0;sketch=0;strokeColor=#000000;strokeWidth=1;fillColor=none;" vertex="1" parent="1">
          <mxGeometry x="360" y="360" width="110" height="20" as="geometry" />
        </mxCell>
        <mxCell id="OF30o3t_w9H05FNnD6Ef-104" value="功能定位" style="rounded=0;whiteSpace=wrap;html=1;shadow=0;sketch=0;strokeColor=#000000;strokeWidth=1;fillColor=none;" vertex="1" parent="1">
          <mxGeometry x="360" y="92" width="110" height="20" as="geometry" />
        </mxCell>
        <mxCell id="OF30o3t_w9H05FNnD6Ef-105" value="环境特点" style="rounded=0;whiteSpace=wrap;html=1;shadow=0;sketch=0;strokeColor=#000000;strokeWidth=1;fillColor=none;" vertex="1" parent="1">
          <mxGeometry x="360" y="119" width="110" height="20" as="geometry" />
        </mxCell>
        <mxCell id="OF30o3t_w9H05FNnD6Ef-115" value="功能分区" style="rounded=0;whiteSpace=wrap;html=1;shadow=0;sketch=0;strokeColor=#000000;strokeWidth=1;fillColor=none;" vertex="1" parent="1">
          <mxGeometry x="360" y="520" width="110" height="20" as="geometry" />
        </mxCell>
        <mxCell id="OF30o3t_w9H05FNnD6Ef-116" value="景观视线" style="rounded=0;whiteSpace=wrap;html=1;shadow=0;sketch=0;strokeColor=#000000;strokeWidth=1;fillColor=none;" vertex="1" parent="1">
          <mxGeometry x="360" y="548.5" width="110" height="20" as="geometry" />
        </mxCell>
        <mxCell id="OF30o3t_w9H05FNnD6Ef-118" value="." style="strokeWidth=1;html=1;shape=mxgraph.flowchart.annotation_2;align=left;labelPosition=right;pointerEvents=1;fillColor=none;" vertex="1" parent="1">
          <mxGeometry x="310" y="532" width="50" height="27.5" as="geometry" />
        </mxCell>
        <mxCell id="OF30o3t_w9H05FNnD6Ef-122" value="外部流线" style="rounded=0;whiteSpace=wrap;html=1;shadow=0;sketch=0;strokeColor=#000000;strokeWidth=1;fillColor=none;" vertex="1" parent="1">
          <mxGeometry x="360" y="660.75" width="110" height="20" as="geometry" />
        </mxCell>
        <mxCell id="OF30o3t_w9H05FNnD6Ef-123" value="内部流线" style="rounded=0;whiteSpace=wrap;html=1;shadow=0;sketch=0;strokeColor=#000000;strokeWidth=1;fillColor=none;" vertex="1" parent="1">
          <mxGeometry x="360" y="689.25" width="110" height="20" as="geometry" />
        </mxCell>
        <mxCell id="OF30o3t_w9H05FNnD6Ef-124" value="." style="strokeWidth=1;html=1;shape=mxgraph.flowchart.annotation_2;align=left;labelPosition=right;pointerEvents=1;fillColor=none;" vertex="1" parent="1">
          <mxGeometry x="310" y="672.75" width="50" height="27.5" as="geometry" />
        </mxCell>
        <mxCell id="OF30o3t_w9H05FNnD6Ef-131" style="edgeStyle=orthogonalEdgeStyle;rounded=0;orthogonalLoop=1;jettySize=auto;html=1;entryX=1;entryY=0.5;entryDx=0;entryDy=0;endArrow=classic;endFill=1;" edge="1" parent="1" source="OF30o3t_w9H05FNnD6Ef-126" target="OF30o3t_w9H05FNnD6Ef-122">
          <mxGeometry relative="1" as="geometry">
            <Array as="points">
              <mxPoint x="530" y="811" />
              <mxPoint x="530" y="671" />
            </Array>
          </mxGeometry>
        </mxCell>
        <mxCell id="OF30o3t_w9H05FNnD6Ef-132" style="edgeStyle=orthogonalEdgeStyle;rounded=0;orthogonalLoop=1;jettySize=auto;html=1;entryX=1;entryY=0.5;entryDx=0;entryDy=0;endArrow=classic;endFill=1;" edge="1" parent="1" source="OF30o3t_w9H05FNnD6Ef-126" target="OF30o3t_w9H05FNnD6Ef-123">
          <mxGeometry relative="1" as="geometry">
            <Array as="points">
              <mxPoint x="500" y="811" />
              <mxPoint x="500" y="699" />
            </Array>
          </mxGeometry>
        </mxCell>
        <mxCell id="OF30o3t_w9H05FNnD6Ef-126" value="建筑设计" style="rounded=0;whiteSpace=wrap;html=1;shadow=0;sketch=0;strokeColor=#000000;strokeWidth=1;fillColor=none;" vertex="1" parent="1">
          <mxGeometry x="360" y="800.75" width="110" height="20" as="geometry" />
        </mxCell>
        <mxCell id="OF30o3t_w9H05FNnD6Ef-133" style="edgeStyle=orthogonalEdgeStyle;rounded=0;orthogonalLoop=1;jettySize=auto;html=1;entryX=1;entryY=0.5;entryDx=0;entryDy=0;endArrow=classic;endFill=1;" edge="1" parent="1" source="OF30o3t_w9H05FNnD6Ef-127" target="OF30o3t_w9H05FNnD6Ef-122">
          <mxGeometry relative="1" as="geometry">
            <Array as="points">
              <mxPoint x="530" y="839.25" />
              <mxPoint x="530" y="671" />
            </Array>
          </mxGeometry>
        </mxCell>
        <mxCell id="OF30o3t_w9H05FNnD6Ef-127" value="景观设计" style="rounded=0;whiteSpace=wrap;html=1;shadow=0;sketch=0;strokeColor=#000000;strokeWidth=1;fillColor=none;" vertex="1" parent="1">
          <mxGeometry x="360" y="829.25" width="110" height="20" as="geometry" />
        </mxCell>
        <mxCell id="OF30o3t_w9H05FNnD6Ef-128" value="." style="strokeWidth=1;html=1;shape=mxgraph.flowchart.annotation_2;align=left;labelPosition=right;pointerEvents=1;fillColor=none;" vertex="1" parent="1">
          <mxGeometry x="310" y="812.75" width="50" height="27.5" as="geometry" />
        </mxCell>
        <mxCell id="OF30o3t_w9H05FNnD6Ef-134" value="" style="endArrow=none;html=1;entryX=0;entryY=0.5;entryDx=0;entryDy=0;" edge="1" parent="1" target="OF30o3t_w9H05FNnD6Ef-89">
          <mxGeometry width="50" height="50" relative="1" as="geometry">
            <mxPoint x="530" y="820" as="sourcePoint" />
            <mxPoint x="575" y="825" as="targetPoint" />
          </mxGeometry>
        </mxCell>
      </root>
    </mxGraphModel>
  </diagram>
</mxfile>
